<?xml version="1.0" encoding="utf-8"?>
<!-- Generator: Adobe Illustrator 22.1.0, SVG Export Plug-In . SVG Version: 6.00 Build 0)  -->
<svg version="1.1" id="圖層_1" xmlns="http://www.w3.org/2000/svg" xmlns:xlink="http://www.w3.org/1999/xlink" x="0px" y="0px"
	 viewBox="0 0 150 150" style="enable-background:new 0 0 150 150;" xml:space="preserve">
<style type="text/css">
	.st0{fill-rule:evenodd;clip-rule:evenodd;}
</style>
<g>
	<path class="st0" d="M106.3,66.1L75.6,96.8c-0.6,0.6-1.2,0.6-1.2,0L43.1,66.1c0-0.6,0-1.2,0-1.2l7.1-7.1l24.2,24.2c0,0,0.6,0,1.2,0
		l24.2-24.2l6.5,7.1C106.9,64.9,106.9,65.5,106.3,66.1L106.3,66.1z M150,75L150,75c0,20.7-8.9,39-21.9,52.6
		C114.6,141.1,95.7,150,75,150c-21.2,0-39.6-8.8-53.1-22.4C8.3,114,0,95.6,0,75c0-21.2,8.3-39.5,21.9-53.1C35.4,8.3,53.8,0,75,0
		c20.7,0,39.6,8.3,53.1,21.8C141.1,35.4,150,53.7,150,75L150,75z M116.3,116.3L116.3,116.3c10.6-10.6,17.1-25.4,17.1-41.4
		c0-16.5-6.5-31.3-17.1-41.9C105.7,22.4,91,16,75,16c-16.5,0-31.3,6.5-41.3,17.1C22.5,43.7,16,58.5,16,75c0,16,6.5,30.7,17.7,41.4
		c10.1,10.6,24.8,17.1,41.3,17.1C91,133.4,105.7,126.9,116.3,116.3L116.3,116.3z"/>
</g>
</svg>
