<?xml version="1.0" encoding="utf-8"?>
<!-- Generator: Adobe Illustrator 22.1.0, SVG Export Plug-In . SVG Version: 6.00 Build 0)  -->
<svg version="1.1" id="圖層_1" xmlns="http://www.w3.org/2000/svg" xmlns:xlink="http://www.w3.org/1999/xlink" x="0px" y="0px"
	 viewBox="0 0 150 31" style="enable-background:new 0 0 150 31;" xml:space="preserve">
<g>
	<path d="M13.7,27L5.8,4.5h3.8L14,17.3l1.7,6.2h0.1l1.7-6.2l4.2-12.8h3.8l-8,22.5H13.7z"/>
	<path d="M28.4,4.5h14.2v3.2H31.9v6.2h10V17h-10v6.8h10.8v3.1H28.4V4.5z"/>
	<path d="M46.7,4.5h14.2v3.2H50.2v6.2h10V17h-10v6.8H61v3.1H46.7V4.5z"/>
	<path d="M68.6,27H65V4.5h3.6V27z M73.2,15l9.7,11.9h-4.3l-8.8-10.8V14l8.6-9.6h4.1L73.2,15z"/>
	<path d="M85.4,4.5h14.2v3.2H89v6.2h10V17H89v6.8h10.8v3.1H85.4V4.5z"/>
	<path d="M117.6,4.5h3.6V27h-3.7l-8.3-13.6c-0.5-0.8-0.9-1.6-1.3-2.4s-0.7-1.6-0.9-2.3h-0.1c0.2,0.8,0.3,1.7,0.3,2.7
		c0.1,0.9,0.1,1.8,0.1,2.6v13h-3.6V4.5h3.9l8.1,13.6c0.4,0.8,0.9,1.5,1.2,2.4c0.4,0.8,0.7,1.6,0.9,2.3h0.1c-0.1-0.8-0.2-1.7-0.3-2.7
		c-0.1-0.9-0.1-1.8-0.1-2.7V4.5H117.6z"/>
	<path d="M144.2,15.7c0,3.7-0.9,6.5-2.8,8.4c-1.9,1.9-4.7,2.9-8.4,2.9h-6.8V4.5h6.8c3.7,0,6.5,0.9,8.4,2.8
		C143.3,9.2,144.2,12,144.2,15.7z M140.7,15.7c0-1.4-0.2-2.6-0.5-3.6s-0.8-1.8-1.5-2.5c-0.7-0.6-1.5-1.1-2.4-1.4s-2-0.4-3.2-0.4
		h-3.2v16.1h3.2c1.2,0,2.3-0.2,3.2-0.5s1.7-0.8,2.4-1.4s1.2-1.5,1.5-2.5C140.5,18.3,140.7,17.1,140.7,15.7z"/>
</g>
</svg>
