<?xml version="1.0" encoding="utf-8"?>
<!-- Generator: Adobe Illustrator 22.1.0, SVG Export Plug-In . SVG Version: 6.00 Build 0)  -->
<svg version="1.1" id="圖層_1" xmlns="http://www.w3.org/2000/svg" xmlns:xlink="http://www.w3.org/1999/xlink" x="0px" y="0px"
	 viewBox="0 0 150 150" style="enable-background:new 0 0 150 150;" xml:space="preserve">
<g>
	<polygon points="65.4,113.1 108.2,10.7 126.2,10.7 126.2,3.8 111.1,3.8 90.4,3.8 90.1,3.8 65.8,63.9 41.8,3.8 41.5,3.8 20.8,3.8 
		5.8,3.8 5.8,10.7 23.6,10.7 	"/>
	<path d="M130.6,50.1L130.6,50.1c-6.2-7.3-13.9-12.4-23.1-15.3l-2.2-0.7l-7.1,17l2.8,0.8c5.3,1.5,9.7,4.2,13.5,8.2
		c6.2,6.4,9.2,14,9.2,23.3c0,9.1-3,16.6-9.1,22.9c-6.1,6.3-13.5,9.3-22.4,9.3c-4.5,0-8.4-0.7-11.6-2.2c-1.3-0.5-2.7-1.4-4.2-2.3
		l-2.6-1.5l-0.4,1.1l0,0l-14.1,33.2l6.3,2.7l7-16.6c6.4,2.6,13,3.9,19.7,3.9c13.9,0,26-4.9,35.9-14.7c9.8-9.8,14.8-21.8,14.8-35.7
		C143,71,138.8,59.8,130.6,50.1z"/>
</g>
</svg>
