<?xml version="1.0" encoding="utf-8"?>
<!-- Generator: Adobe Illustrator 22.1.0, SVG Export Plug-In . SVG Version: 6.00 Build 0)  -->
<svg version="1.1" id="åœ–å±¤_1" xmlns="http://www.w3.org/2000/svg" xmlns:xlink="http://www.w3.org/1999/xlink" x="0px" y="0px"
	 viewBox="0 0 20 20" style="enable-background:new 0 0 20 20;" xml:space="preserve">
<style type="text/css">
	.è_x00A3__x00BD_ä_x00BD__x009C_é_x0099__x00B0_å_x00BD__x00B1_{fill:none;}
	.å_x00A4__x0096_å_x0085__x0089_æ_x009A__x0088__x0020_5_x0020_é_x00BB__x009E_{fill:none;}
	
		.è_x0097__x008D_è_x0089__x00B2_é_x009C__x0093_è_x0099__x00B9_{fill:none;stroke:#8AACDA;stroke-width:7;stroke-linecap:round;stroke-linejoin:round;}
	
		.é_x0089__x00BB_é_x00BB__x0083_ä_x00BA__x00AE_é_x0083__x00A8_{fill:url(#SVGID_1_);stroke:#FFFFFF;stroke-width:0.3629;stroke-miterlimit:1;}
	.æ_x0090__x0096_æ_x0093__x00BA__GS{fill:#FFDD00;}
	.é_x0098__x00BF_è_x008E__x0089_è_x008E__x008E__GS{fill:#A6D0E4;}
	.st0{fill-rule:evenodd;clip-rule:evenodd;}
</style>
<linearGradient id="SVGID_1_" gradientUnits="userSpaceOnUse" x1="-65" y1="-65" x2="-65" y2="-66">
	<stop  offset="0" style="stop-color:#656565"/>
	<stop  offset="0.618" style="stop-color:#1B1B1B"/>
	<stop  offset="0.6292" style="stop-color:#545454"/>
	<stop  offset="0.9831" style="stop-color:#3E3E3E"/>
</linearGradient>
<g>
	<path class="st0" d="M13.3,9l-3.3,3.3c-0.1,0.1-0.1,0.1-0.1,0L6.6,9c0-0.1,0-0.1,0-0.1l0.8-0.8l2.6,2.6c0,0,0.1,0,0.1,0l2.6-2.6
		l0.7,0.8C13.4,8.9,13.4,9,13.3,9L13.3,9z M18,10L18,10c0,2.2-0.9,4.1-2.3,5.6C14.2,17,12.2,18,10,18c-2.3,0-4.2-0.9-5.6-2.4
		C2.9,14.1,2,12.2,2,10c0-2.3,0.9-4.2,2.3-5.7C5.8,2.9,7.8,2,10,2c2.2,0,4.2,0.9,5.7,2.3C17,5.8,18,7.7,18,10L18,10z M14.4,14.4
		L14.4,14.4c1.1-1.1,1.8-2.7,1.8-4.4c0-1.8-0.7-3.3-1.8-4.5c-1.1-1.1-2.7-1.8-4.4-1.8c-1.8,0-3.3,0.7-4.4,1.8
		C4.4,6.6,3.7,8.2,3.7,10c0,1.7,0.7,3.3,1.9,4.4c1.1,1.1,2.6,1.8,4.4,1.8C11.7,16.2,13.3,15.5,14.4,14.4L14.4,14.4z"/>
</g>
</svg>
